<?xml version="1.0" encoding="UTF-8" standalone="no"?>
<!-- Created with Inkscape (http://www.inkscape.org/) -->

<svg
   xmlns:dc="http://purl.org/dc/elements/1.1/"
   xmlns:cc="http://creativecommons.org/ns#"
   xmlns:rdf="http://www.w3.org/1999/02/22-rdf-syntax-ns#"
   xmlns:svg="http://www.w3.org/2000/svg"
   xmlns="http://www.w3.org/2000/svg"
   xmlns:sodipodi="http://sodipodi.sourceforge.net/DTD/sodipodi-0.dtd"
   xmlns:inkscape="http://www.inkscape.org/namespaces/inkscape"
   width="2161.4172"
   height="1619.2913"
   id="svg2"
   version="1.1"
   inkscape:version="0.48.5 r10040"
   sodipodi:docname="projectorstand.pdf">
  <sodipodi:namedview
     id="base"
     pagecolor="#ffffff"
     bordercolor="#666666"
     borderopacity="1.0"
     inkscape:pageopacity="0.0"
     inkscape:pageshadow="2"
     inkscape:zoom="0.32270409"
     inkscape:cx="706.53825"
     inkscape:cy="793.49182"
     inkscape:document-units="mm"
     inkscape:current-layer="layer1"
     showgrid="false"
     units="mm"
     inkscape:window-width="1509"
     inkscape:window-height="904"
     inkscape:window-x="50"
     inkscape:window-y="50"
     inkscape:window-maximized="0" />
  <defs
     id="defs4" />
  <metadata
     id="metadata7">
    <rdf:RDF>
      <cc:Work
         rdf:about="">
        <dc:format>image/svg+xml</dc:format>
        <dc:type
           rdf:resource="http://purl.org/dc/dcmitype/StillImage" />
        <dc:title></dc:title>
      </cc:Work>
    </rdf:RDF>
  </metadata>
  <g
     inkscape:label="Layer 1"
     inkscape:groupmode="layer"
     id="layer1"
     transform="translate(0,566.92911)">
    <path
       id="path3078"
       d="m 47.741148,27.243696 54.508722,0 0,-21.2598426 76.2469,0 0,21.2598426 75.60911,0 0,-21.2598426 76.24691,0 0,21.2598426 75.60911,0 0,-21.2598426 76.24691,0 0,21.2598426 54.50872,0"
       style="fill:none;stroke:#000000;stroke-opacity:1;stroke-width:0.03543307;stroke-miterlimit:4;stroke-dasharray:none"
       inkscape:label="part"
       inkscape:connector-curvature="0" />
    <path
       id="path3080"
       d="m 536.71753,27.243696 0,59.110415 21.25984,0 0,80.848609 -21.25984,0 0,80.2108 21.25984,0 0,80.84861 -21.25984,0 0,80.21081 21.25984,0 0,80.8486 -21.25984,0 0,80.21081 21.25984,0 0,80.8486 -21.25984,0 0,80.21081 21.25984,0 0,80.84861 -21.25984,0 0,59.11041"
       style="fill:none;stroke:#000000;stroke-opacity:1;stroke-width:0.03543307;stroke-miterlimit:4;stroke-dasharray:none"
       inkscape:label="part"
       inkscape:connector-curvature="0" />
    <path
       id="path3082"
       d="m 536.71753,870.55078 -54.50872,0 0,21.25985 -76.24691,0 0,-21.25985 -75.60911,0 0,21.25985 -76.24691,0 0,-21.25985 -75.60911,0"
       style="fill:none;stroke:#000000;stroke-opacity:1;stroke-width:0.03543307;stroke-miterlimit:4;stroke-dasharray:none"
       inkscape:label="part"
       inkscape:connector-curvature="0"
       sodipodi:nodetypes="cccccccccc" />
    <path
       id="path3086"
       d="m 575.6939,5.9838534 80.68916,0 0,21.2598426 80.21081,0 0,-21.2598426 80.8486,0 0,21.2598426 80.21081,0 0,-21.2598426 80.84861,0 0,21.2598426 80.21081,0 0,-21.2598426 80.8486,0 0,21.2598426 80.2108,0 0,-21.2598426 80.8486,0 0,21.2598426 80.2108,0 0,-21.2598426 80.6892,0"
       style="fill:none;stroke:#000000;stroke-opacity:1;stroke-width:0.03543307;stroke-miterlimit:4;stroke-dasharray:none"
       inkscape:label="part"
       inkscape:connector-curvature="0" />
    <path
       id="path3088"
       d="m 1461.5207,5.9838534 0,80.6891556 -21.2599,0 0,80.210811 21.2599,0 0,80.8486 -21.2599,0 0,80.21081 21.2599,0 0,80.8486 -21.2599,0 0,80.21081 21.2599,0 0,80.84861 -21.2599,0 0,80.21081 21.2599,0 0,80.8486 -21.2599,0 0,80.21081 21.2599,0 0,80.68916"
       style="fill:none;stroke:#000000;stroke-opacity:1;stroke-width:0.03543307;stroke-miterlimit:4;stroke-dasharray:none"
       inkscape:label="part"
       inkscape:connector-curvature="0" />
    <path
       id="path3090"
       d="m 1461.5207,891.81063 -80.6892,0 0,-21.25985 -80.2108,0 0,21.25985 -80.8486,0 0,-21.25985 -80.2108,0 0,21.25985 -80.8486,0 0,-21.25985 -80.21081,0 0,21.25985 -80.84861,0 0,-21.25985 -80.21081,0 0,21.25985 -80.8486,0 0,-21.25985 -80.21081,0 0,21.25985 -80.68916,0"
       style="fill:none;stroke:#000000;stroke-opacity:1;stroke-width:0.03543307;stroke-miterlimit:4;stroke-dasharray:none"
       inkscape:label="part"
       inkscape:connector-curvature="0" />
    <path
       id="path3092"
       d="m 575.6939,891.81063 0,-80.68916 21.25985,0 0,-80.21081 -21.25985,0 0,-80.8486 21.25985,0 0,-80.21081 -21.25985,0 0,-80.84861 21.25985,0 0,-80.21081 -21.25985,0 0,-80.8486 21.25985,0 0,-80.21081 -21.25985,0 0,-80.8486 21.25985,0 0,-80.210811 -21.25985,0 0,-80.6891556"
       style="fill:none;stroke:#000000;stroke-opacity:1;stroke-width:0.03543307;stroke-miterlimit:4;stroke-dasharray:none"
       inkscape:label="part"
       inkscape:connector-curvature="0" />
    <path
       id="path3112"
       d="m 929.06092,-528.54248 0,54.82761 -21.2599,0 0,75.60911 21.2599,0 0,76.24691 -21.2599,0 0,75.60911 21.2599,0 0,76.24691 -21.2599,0 0,75.609112 21.2599,0 0,54.827615"
       style="fill:none;stroke:#000000;stroke-opacity:1;stroke-width:0.03543307;stroke-miterlimit:4;stroke-dasharray:none"
       inkscape:label="part"
       inkscape:connector-curvature="0" />
    <path
       id="path3114"
       d="m 929.06092,-39.566103 -80.3703,0 0,21.259843 -80.8486,0 0,-21.259843 -80.2108,0 0,21.259843 -80.8486,0 0,-21.259843 -80.2108,0 0,21.259843 -80.84861,0 0,-21.259843 -80.21081,0 0,21.259843 -80.84861,0 0,-21.259843 -80.2108,0 0,21.259843 -80.84861,0 0,-21.259843 -80.370258,0"
       style="fill:none;stroke:#000000;stroke-opacity:1;stroke-width:0.03543307;stroke-miterlimit:4;stroke-dasharray:none"
       inkscape:label="part"
       inkscape:connector-curvature="0" />
    <path
       id="path3116"
       d="m 43.234122,-39.566103 0,-54.827615 21.25985,0 0,-75.609112 -21.25985,0 0,-76.24691 21.25985,0 0,-75.60911 -21.25985,0 0,-76.24691 21.25985,0 0,-75.60911 -21.25985,0 0,-54.82761"
       style="fill:none;stroke:#000000;stroke-opacity:1;stroke-width:0.03543307;stroke-miterlimit:4;stroke-dasharray:none"
       inkscape:label="part"
       inkscape:connector-curvature="0" />
    <path
       style="fill:none;stroke:#000000;stroke-width:0.03543307;stroke-linecap:butt;stroke-linejoin:miter;stroke-opacity:1;stroke-miterlimit:4;stroke-dasharray:none"
       d="M 47.644268,27.042023 177.50778,870.46641"
       id="path3150"
       inkscape:connector-curvature="0" />
    <path
       id="path3078-1"
       d="m 1520.5509,35.736282 54.5087,0 0,-21.25984 76.2469,0 0,21.25984 75.6091,0 0,-21.25984 76.2469,0 0,21.25984 75.6091,0 0,-21.25984 76.2469,0 0,21.25984 54.5087,0"
       style="fill:none;stroke:#000000;stroke-opacity:1;stroke-width:0.03543307;stroke-miterlimit:4;stroke-dasharray:none"
       inkscape:label="part"
       inkscape:connector-curvature="0" />
    <path
       id="path3080-7"
       d="m 2009.5272,35.736282 0,59.11042 21.2599,0 0,80.848618 -21.2599,0 0,80.2108 21.2599,0 0,80.84861 -21.2599,0 0,80.21081 21.2599,0 0,80.8486 -21.2599,0 0,80.21081 21.2599,0 0,80.8486 -21.2599,0 0,80.21081 21.2599,0 0,80.84861 -21.2599,0 0,59.11041"
       style="fill:none;stroke:#000000;stroke-opacity:1;stroke-width:0.03543307;stroke-miterlimit:4;stroke-dasharray:none"
       inkscape:label="part"
       inkscape:connector-curvature="0" />
    <path
       id="path3082-4"
       d="m 2009.5272,879.04338 -54.5087,0 0,21.25985 -76.2469,0 0,-21.25985 -75.6091,0 0,21.25985 -76.2469,0 0,-21.25985 -75.6091,0"
       style="fill:none;stroke:#000000;stroke-opacity:1;stroke-width:0.03543307;stroke-miterlimit:4;stroke-dasharray:none"
       inkscape:label="part"
       inkscape:connector-curvature="0"
       sodipodi:nodetypes="cccccccccc" />
    <path
       style="fill:none;stroke:#000000;stroke-width:0.03543307;stroke-linecap:butt;stroke-linejoin:miter;stroke-opacity:1;stroke-miterlimit:4;stroke-dasharray:none"
       d="M 1520.454,35.534612 1650.3175,878.95901"
       id="path3150-0"
       inkscape:connector-curvature="0" />
    <g
       id="g3183"
       transform="translate(-3.0988142,130.15019)"
       style="fill:none;stroke:#000000;stroke-opacity:1;stroke-width:0.03543307;stroke-miterlimit:4;stroke-dasharray:none">
      <path
         inkscape:connector-curvature="0"
         inkscape:label="part"
         style="fill:none;stroke:#000000;stroke-opacity:1;stroke-width:0.03543307;stroke-miterlimit:4;stroke-dasharray:none"
         d="m 956.9614,-528.54721 80.3703,0 0,-21.25984 80.8486,0 0,21.25984 80.2108,0 0,-21.25984 80.8486,0 0,21.25984 80.2108,0 0,-21.25984 80.8486,0 0,21.25984 80.2108,0 0,-21.25984 80.8486,0 0,21.25984 80.2108,0 0,-21.25984 80.8486,0 0,21.25984 80.3703,0"
         id="path3070" />
      <path
         sodipodi:nodetypes="ccccccccccc"
         inkscape:connector-curvature="0"
         inkscape:label="part"
         style="fill:none;stroke:#000000;stroke-opacity:1;stroke-width:0.03543307;stroke-miterlimit:4;stroke-dasharray:none"
         d="m 1842.7882,-528.54721 0,54.82762 -21.2599,0 0,75.60908 21.2599,0 0,76.2469 -21.2599,0 0,75.6091 21.2599,0 0,76.247 -21.2599,0"
         id="path3072" />
      <path
         sodipodi:nodetypes="ccccccccccc"
         inkscape:connector-curvature="0"
         inkscape:label="part"
         style="fill:none;stroke:#000000;stroke-opacity:1;stroke-width:0.03543307;stroke-miterlimit:4;stroke-dasharray:none"
         d="m 978.22125,-170.00751 -21.25985,0 0,-76.247 21.25985,0 0,-75.6091 -21.25985,0 0,-76.2469 21.25985,0 0,-75.60908 -21.25985,0 0,-54.82762"
         id="path3076" />
      <path
         transform="translate(0,-566.92911)"
         inkscape:connector-curvature="0"
         id="path3179"
         d="m 972.88947,396.60584 859.28443,0"
         style="fill:none;stroke:#000000;stroke-width:0.03543307;stroke-linecap:butt;stroke-linejoin:miter;stroke-opacity:1;stroke-miterlimit:4;stroke-dasharray:none" />
    </g>
    <path
       style="fill:none;stroke:#000000;stroke-width:0.03543307;stroke-linecap:butt;stroke-linejoin:miter;stroke-opacity:1;stroke-miterlimit:4;stroke-dasharray:none"
       d="m 43.276052,38.893665 885.593488,0"
       id="path3181"
       inkscape:connector-curvature="0"
       transform="translate(0,-566.92911)" />
  </g>
  <g
     inkscape:label="newlayer"
     inkscape:groupmode="layer"
     id="g3035" />
  <g
     id="g3119"
     inkscape:groupmode="layer"
     inkscape:label="newlayer" />
</svg>
